<svg width="350" height="350" viewBox="0 0 350 350" fill="none" xmlns="http://www.w3.org/2000/svg">
<circle cx="175" cy="175" r="175" fill="black"/>
<path d="M46.7172 294.844C62.1513 293.13 76.0972 279.043 91.4693 275.627C104.585 272.712 123.577 279.808 133.802 267.026C142.294 256.411 148.316 245.138 148.316 230.74C148.316 228.099 153.892 214.876 147.107 218.645C140.938 222.072 129.809 219.854 122.917 219.854C91.4467 219.854 85.847 162.484 96.9793 142.446C100.517 136.077 103.097 129.498 106.655 123.093C109.589 117.812 118.745 108.631 119.288 103.741C121.175 86.7552 155.726 84.3373 167.669 81.4322C185.402 77.1188 220.976 74.7739 236.611 85.5983C253.59 97.3532 271.687 121.96 271.687 143.521C271.687 163.112 277.271 173.565 264.43 189.617C255.961 200.203 241.436 202.521 229.354 205.206C226.657 205.805 223.633 205.188 220.887 205.34C216.434 205.588 214.845 210.243 211.211 212.06C204.767 215.282 205.182 220.115 202.073 227.112C197.203 238.069 201.245 256.239 211.211 261.516C227.091 269.922 247.525 270.55 262.011 282.749C270.515 289.911 279.424 302.102 291.039 302.102" stroke="white" stroke-width="3" stroke-linecap="round"/>
<path d="M145.897 123.093C136.582 123.093 137.787 133.775 144.016 137.607C150.814 141.791 162.3 139.909 162.831 130.35C163.313 121.667 162.288 118.255 153.155 118.255C141.931 118.255 137.585 122.225 150.736 125.512" stroke="white" stroke-width="3" stroke-linecap="round"/>
<path d="M196.697 127.931C196.697 139.191 200.556 142.446 211.211 142.446C225.317 142.446 228.24 136.21 230.429 124.168C232.751 111.4 222.651 113.417 213.63 113.417C204.28 113.417 193.029 132.769 203.954 132.769" stroke="white" stroke-width="3" stroke-linecap="round"/>
<path d="M150.735 181.15C159.965 189.457 170.844 195.912 183.527 198.218C192.08 199.773 195.318 202.4 200.46 194.32C206.211 185.283 208.792 179.87 208.792 169.055" stroke="white" stroke-width="3" stroke-linecap="round"/>
<path d="M182.183 149.703C177.701 150.263 175.682 161.888 173.716 165.426C167.915 175.869 183.778 173.893 189.44 173.893" stroke="white" stroke-width="3" stroke-linecap="round"/>
</svg>
